<?xml version="1.0" encoding="UTF-8" standalone="no"?>
<!-- Created with Inkscape (http://www.inkscape.org/) -->

<svg
   xmlns:dc="http://purl.org/dc/elements/1.1/"
   xmlns:cc="http://creativecommons.org/ns#"
   xmlns:rdf="http://www.w3.org/1999/02/22-rdf-syntax-ns#"
   xmlns:svg="http://www.w3.org/2000/svg"
   xmlns="http://www.w3.org/2000/svg"
   xmlns:sodipodi="http://sodipodi.sourceforge.net/DTD/sodipodi-0.dtd"
   xmlns:inkscape="http://www.inkscape.org/namespaces/inkscape"
   width="105.56892mm"
   height="133.76343mm"
   viewBox="0 0 105.56892 133.76343"
   version="1.1"
   id="svg4508"
   inkscape:version="0.92.1 r15371"
   sodipodi:docname="FX13_reading.svg">
  <defs
     id="defs4502" />
  <sodipodi:namedview
     id="base"
     pagecolor="#ffffff"
     bordercolor="#666666"
     borderopacity="1.0"
     inkscape:pageopacity="0.0"
     inkscape:pageshadow="2"
     inkscape:zoom="1.4"
     inkscape:cx="372.32632"
     inkscape:cy="266.26277"
     inkscape:document-units="mm"
     inkscape:current-layer="layer1"
     showgrid="false"
     inkscape:window-width="1920"
     inkscape:window-height="1016"
     inkscape:window-x="0"
     inkscape:window-y="27"
     inkscape:window-maximized="1"
     inkscape:snap-global="true"
     fit-margin-top="0"
     fit-margin-left="0"
     fit-margin-right="0"
     fit-margin-bottom="0" />
  <metadata
     id="metadata4505">
    <rdf:RDF>
      <cc:Work
         rdf:about="">
        <dc:format>image/svg+xml</dc:format>
        <dc:type
           rdf:resource="http://purl.org/dc/dcmitype/StillImage" />
        <dc:title />
      </cc:Work>
    </rdf:RDF>
  </metadata>
  <g
     inkscape:label="Layer 1"
     inkscape:groupmode="layer"
     id="layer1"
     transform="translate(-57.751327,-90.821851)">
    <path
       style="fill:#cccccc;stroke:none;stroke-width:0.26458332px;stroke-linecap:butt;stroke-linejoin:miter;stroke-opacity:1"
       d="m 79.40438,183.92017 -18.099497,33.84842 102.015357,6.81669 -9.87246,-43.72086 z"
       id="path5255"
       inkscape:connector-curvature="0" />
    <path
       style="fill:#d38d5f;fill-opacity:1;stroke:none;stroke-width:0.26458332px;stroke-linecap:butt;stroke-linejoin:miter;stroke-opacity:1"
       d="m 72.377932,216.07425 1.662113,-5.15256 -8.642993,-26.92625 -3.822862,-0.33242 z"
       id="path5251"
       inkscape:connector-curvature="0" />
    <path
       style="fill:#6c5353;stroke:none;stroke-width:0.26458332px;stroke-linecap:butt;stroke-linejoin:miter;stroke-opacity:1"
       d="m 95.906348,126.24495 24.767022,-0.93021 c 0,0 -2.5581,8.25567 -4.88363,9.1859 -2.32555,0.93021 -20.697329,-3.72088 -20.697329,-3.72088 z"
       id="path4697"
       inkscape:connector-curvature="0" />
    <path
       style="opacity:1;fill:#917c6f;fill-opacity:1;stroke:none;stroke-width:1.28899992;stroke-linecap:round;stroke-linejoin:round;stroke-miterlimit:4;stroke-dasharray:none;stroke-opacity:1"
       d="m 133.68858,206.07619 c 1.469,-2.14638 2.08681,-4.3503 -2.65085,-7.61759 -4.21635,-2.90775 -6.50158,-1.99128 -7.97057,0.15509 -1.46901,2.14636 -2.32516,4.1379 2.65086,7.61758 5.38386,3.76492 6.50157,1.99127 7.97056,-0.15508 z"
       id="path4485-7-5-2-2-7"
       inkscape:connector-curvature="0"
       sodipodi:nodetypes="sssss" />
    <path
       style="opacity:1;fill:#917c6f;fill-opacity:1;stroke:none;stroke-width:1.28899992;stroke-linecap:round;stroke-linejoin:round;stroke-miterlimit:4;stroke-dasharray:none;stroke-opacity:1"
       d="m 94.161098,211.33614 c -2.409252,-0.97999 -4.140267,-2.47749 -1.990828,-7.81609 1.912937,-4.75112 4.324589,-5.24724 6.733828,-4.26725 2.409252,0.97999 4.221902,2.16887 1.990822,7.81608 -2.413941,6.11012 -4.324582,5.24724 -6.733822,4.26726 z"
       id="path4485-7-5-2-2"
       inkscape:connector-curvature="0"
       sodipodi:nodetypes="sssss" />
    <path
       style="fill:#5f8dd3;fill-opacity:1;stroke:none;stroke-width:0.26458332px;stroke-linecap:butt;stroke-linejoin:miter;stroke-opacity:1"
       d="m 96.014874,156.42006 c 0,0 2.479457,15.78086 1.743522,23.18062 -0.735935,7.39978 -4.645973,20.55362 -4.117195,20.82181 0.528778,0.26819 0.115086,3.04996 2.7978,2.95316 2.682726,-0.0968 5.776869,-0.80311 6.344489,-1.97267 0.56762,-1.16956 1.76884,-31.01322 4.57651,-31.55801 2.80768,-0.54481 9.06028,25.94556 15.95798,30.64578 6.89772,4.7002 9.03151,1.63008 7.692,-3.08923 -1.33949,-4.71932 -12.68441,-26.18826 -12.65625,-29.31899 0.0282,-3.13073 -1.48582,-7.65729 -2.17614,-8.21195 -0.6903,-0.55468 -20.162716,-3.45052 -20.162716,-3.45052 z"
       id="path4663"
       inkscape:connector-curvature="0"
       sodipodi:nodetypes="cscccccsccc" />
    <path
       style="fill:#d38d5f;stroke:none;stroke-width:0.26458332px;stroke-linecap:butt;stroke-linejoin:miter;stroke-opacity:1"
       d="m 70.335071,154.57603 c 0.471552,0.83106 85.979619,1.99454 85.979619,1.99454 l -0.47155,29.91805 -97.925601,-6.64846 z"
       id="path5243-3"
       inkscape:connector-curvature="0" />
    <path
       style="fill:#c88458;stroke:none;stroke-width:0.99999994px;stroke-linecap:butt;stroke-linejoin:miter;stroke-opacity:1;fill-opacity:1"
       d="M 117.35938 243.9375 C 112.71052 253.01647 105.94981 272.09734 100.71484 291.99023 C 96.149644 309.33796 104.41114 330.72976 110.97656 343.93945 L 238.70703 352.61133 C 247.54538 334.29885 261.19686 305.78379 266.42773 293.41992 C 273.82642 275.93205 266.74061 249.88304 265.87891 246.86719 C 216.92685 246.0542 160.72108 245.02072 117.35938 243.9375 z "
       transform="matrix(0.26458333,0,0,0.26458333,57.751327,90.821851)"
       id="path5243" />
    <path
       style="opacity:1;fill:#ff80b2;fill-opacity:1;stroke:none;stroke-width:1.28899992;stroke-linecap:round;stroke-linejoin:round;stroke-miterlimit:4;stroke-dasharray:none;stroke-opacity:1"
       d="m 119.10363,147.8725 c 0,10.24277 2.29645,19.32521 -12.49979,19.12758 -13.168048,-0.1759 -12.616055,-8.4197 -12.616055,-18.66248 0,-10.24278 -6.598841,-18.83158 12.616055,-18.42991 16.8863,0.35298 12.49979,7.72203 12.49979,17.96481 z"
       id="path4485-7"
       inkscape:connector-curvature="0"
       sodipodi:nodetypes="sssss" />
    <path
       style="opacity:1;fill:#ffe6d5;fill-opacity:1;stroke:none;stroke-width:1.28899992;stroke-linecap:round;stroke-linejoin:round;stroke-miterlimit:4;stroke-dasharray:none;stroke-opacity:1"
       d="m 112.24336,131.07167 c 0,2.29516 -0.63203,4.20005 -5.58134,4.15577 -4.40468,-0.0394 -5.58134,-1.86061 -5.58134,-4.15577 0,-2.29517 0.35974,-4.1676 5.58134,-4.15576 5.64962,0.0128 5.58134,1.86059 5.58134,4.15576 z"
       id="path4485-7-5"
       inkscape:connector-curvature="0"
       sodipodi:nodetypes="sssss" />
    <ellipse
       style="opacity:1;fill:#ffe6d5;fill-opacity:1;stroke:none;stroke-width:1.28899992;stroke-linecap:round;stroke-linejoin:round;stroke-miterlimit:4;stroke-dasharray:none;stroke-opacity:1"
       id="path4485"
       cx="106.89454"
       cy="112.93123"
       rx="16.685762"
       ry="18.546196" />
    <path
       style="fill:none;stroke:#c83737;stroke-width:1.16499996;stroke-linecap:round;stroke-linejoin:miter;stroke-miterlimit:4;stroke-dasharray:none;stroke-opacity:1"
       d="m 102.30159,122.05898 c 0,0 0.93022,2.09299 4.18598,1.86044 3.25576,-0.23255 4.76735,-2.5581 4.76735,-2.5581"
       id="path4487"
       inkscape:connector-curvature="0" />
    <path
       style="fill:none;stroke:#6c5353;stroke-width:1.16499996;stroke-linecap:round;stroke-linejoin:miter;stroke-miterlimit:4;stroke-dasharray:none;stroke-opacity:1"
       d="m 97.756201,115.08842 c 0,0 0.292113,0.39224 1.314514,0.34865 1.022395,-0.0436 1.497085,-0.47939 1.497085,-0.47939"
       id="path4487-3"
       inkscape:connector-curvature="0" />
    <path
       style="fill:none;stroke:#6c5353;stroke-width:1.16499996;stroke-linecap:round;stroke-linejoin:miter;stroke-miterlimit:4;stroke-dasharray:none;stroke-opacity:1"
       d="m 111.36037,114.50835 c 0,0 0.29212,0.39224 1.31452,0.34866 1.0224,-0.0436 1.49709,-0.4794 1.49709,-0.4794"
       id="path4487-3-6"
       inkscape:connector-curvature="0" />
    <path
       style="opacity:1;fill:#ff80b2;fill-opacity:1;stroke:none;stroke-width:1.28899992;stroke-linecap:round;stroke-linejoin:round;stroke-miterlimit:4;stroke-dasharray:none;stroke-opacity:1"
       d="m 93.960173,145.53201 c -3.467135,6.69042 -4.845021,13.50203 -8.37926,11.1276 -3.145328,-2.11317 -1.250349,-7.95574 2.216782,-14.64615 3.467133,-6.69042 6.557426,-11.98537 10.338815,-9.58198 4.09135,2.60036 -0.709206,6.41013 -4.176337,13.10053 z"
       id="path4485-7-3"
       inkscape:connector-curvature="0"
       sodipodi:nodetypes="sssss" />
    <path
       style="opacity:1;fill:#ff80b2;fill-opacity:1;stroke:none;stroke-width:1.28899992;stroke-linecap:round;stroke-linejoin:round;stroke-miterlimit:4;stroke-dasharray:none;stroke-opacity:1"
       d="m 118.33284,145.53201 c 3.46714,6.69042 4.84503,13.50203 8.37927,11.1276 3.14532,-2.11317 1.25035,-7.95574 -2.21679,-14.64615 -3.46713,-6.69042 -6.55743,-11.98537 -10.33881,-9.58198 -4.09136,2.60036 0.70921,6.41013 4.17633,13.10053 z"
       id="path4485-7-3-5"
       inkscape:connector-curvature="0"
       sodipodi:nodetypes="sssss" />
    <path
       style="opacity:1;fill:#ff80b2;fill-opacity:1;stroke:none;stroke-width:1.28899992;stroke-linecap:round;stroke-linejoin:round;stroke-miterlimit:4;stroke-dasharray:none;stroke-opacity:1"
       d="m 85.006126,143.38257 c 2.62804,5.90342 8.795814,9.83384 1.943372,13.79344 -3.280914,1.89582 -6.509685,-4.74143 -8.788885,-11.9239 -2.279209,-7.18246 -3.838143,-13.11173 0.535154,-14.08614 4.731765,-1.05429 3.245761,5.33251 6.310359,12.2166 z"
       id="path4485-7-3-6"
       inkscape:connector-curvature="0"
       sodipodi:nodetypes="sssss" />
    <path
       style="opacity:1;fill:#ff80b2;fill-opacity:1;stroke:none;stroke-width:1.28899992;stroke-linecap:round;stroke-linejoin:round;stroke-miterlimit:4;stroke-dasharray:none;stroke-opacity:1"
       d="m 126.91232,143.38257 c -2.62804,5.90342 -8.7958,9.83384 -1.94336,13.79344 3.28091,1.89582 6.50967,-4.74143 8.78888,-11.9239 2.27921,-7.18246 3.83814,-13.11173 -0.53516,-14.08614 -4.73175,-1.05429 -3.24575,5.33251 -6.31036,12.2166 z"
       id="path4485-7-3-6-9"
       inkscape:connector-curvature="0"
       sodipodi:nodetypes="sssss" />
    <path
       style="fill:#916f6f;stroke:none;stroke-width:0.26458332px;stroke-linecap:butt;stroke-linejoin:miter;stroke-opacity:1"
       d="m 107.53406,102.05932 c 0,0 -2.0824,4.17992 -5.93013,8.60451 -3.847729,4.42459 -5.232472,2.79065 -6.395239,8.48823 -1.162773,5.69757 3.720867,15.23229 3.720867,15.23229 0,0 -16.627625,-9.65099 -12.092817,-22.90658 4.534809,-13.255592 6.511519,-16.743904 12.325372,-18.48806 5.813847,-1.744156 8.139397,1.860434 8.139397,1.860434 0,0 2.55809,-5.581301 8.02311,-3.60459 5.46503,1.97671 12.55793,12.674206 13.13931,21.046146 0.58139,8.37195 -11.1626,22.67404 -13.25558,23.13915 -2.09299,0.46511 -1.74416,0 -1.74416,0 0,0 6.27897,-9.76728 7.32546,-16.7439 1.04649,-6.97663 1.16278,-3.48832 -5.46503,-7.67429 -6.62779,-4.18598 -7.79056,-8.95334 -7.79056,-8.95334 z"
       id="path4695"
       inkscape:connector-curvature="0" />
    <g
       id="g5224"
       transform="matrix(0.41040513,-0.10686443,0.10686443,0.41040513,23.928411,131.10209)"
       style="stroke-width:2.35798979">
      <path
         inkscape:connector-curvature="0"
         id="path5213"
         d="m 159.31696,59.630952 c 1.32292,0.566963 22.3006,7.559524 22.3006,7.559524 0,0 -10.20536,5.480653 -13.60715,4.346726 -3.40178,-1.13393 -9.26041,-11.90625 -8.69345,-11.90625 z"
         style="fill:#e6e6e6;fill-opacity:1;stroke:none;stroke-width:0.62388474px;stroke-linecap:butt;stroke-linejoin:miter;stroke-opacity:1" />
      <path
         inkscape:connector-curvature="0"
         id="path5211"
         d="m 237.18006,54.528272 c -1.13393,0 -71.24851,17.764882 -70.87054,17.00893 0.37798,-0.755954 55.75149,-28.348215 55.75149,-28.348215 z"
         style="fill:#e6e6e6;fill-opacity:1;stroke:none;stroke-width:0.62388474px;stroke-linecap:butt;stroke-linejoin:miter;stroke-opacity:1" />
      <path
         inkscape:transform-center-y="-24.431478"
         inkscape:transform-center-x="13.731588"
         inkscape:connector-curvature="0"
         id="path5165-7"
         d="m 147.67015,23.265531 c -1.43905,-0.01867 -10.56748,-0.494637 -10.56748,-0.494637 0,0 28.28672,51.942559 27.85327,51.102673 -0.43345,-0.839895 -17.28579,-50.608036 -17.28579,-50.608036 z"
         style="fill:#e6e6e6;fill-opacity:1;stroke:none;stroke-width:0.62388474px;stroke-linecap:butt;stroke-linejoin:miter;stroke-opacity:1" />
      <path
         sodipodi:nodetypes="ccssc"
         inkscape:connector-curvature="0"
         id="path4532"
         d="m 242.60534,48.965561 c -1.40672,1.661477 -62.65068,18.190507 -62.65068,18.190507 0,0 -21.33609,93.121882 -20.68718,92.250582 0.6489,-0.87129 57.59492,-28.35919 58.16271,-29.12158 0.5678,-0.76239 25.17515,-81.319509 25.17515,-81.319509 z"
         style="fill:#37c871;fill-opacity:1;stroke:none;stroke-width:0.62388474px;stroke-linecap:butt;stroke-linejoin:miter;stroke-opacity:1" />
      <path
         sodipodi:nodetypes="csccccc"
         inkscape:connector-curvature="0"
         id="path4534"
         d="m 181.08859,66.778084 c 0,0 -7.24754,2.573775 -13.54197,0.945389 -6.82884,-1.766637 -8.23487,-7.615555 -8.45617,-7.989021 0.46115,-0.16451 -13.60699,96.075568 -13.60699,96.075568 0,0 3.0371,2.85035 5.45868,4.14588 2.42158,1.29552 9.48962,-0.87381 9.48962,-0.87381 z"
         style="fill:#00aa88;stroke:none;stroke-width:0.62388474px;stroke-linecap:butt;stroke-linejoin:miter;stroke-opacity:1" />
      <path
         inkscape:connector-curvature="0"
         id="path5163"
         d="m 159.12797,60.575893 -22.86756,-41.388394 -1.88988,103.754461 11.33929,33.07292 z"
         style="fill:#37c871;fill-opacity:1;stroke:none;stroke-width:0.62388474px;stroke-linecap:butt;stroke-linejoin:miter;stroke-opacity:1" />
      <path
         sodipodi:nodetypes="csccscc"
         inkscape:connector-curvature="0"
         id="path5215"
         d="m 176.32589,67.001486 c 0,0 8.31548,4.913692 7.9375,20.032738 -0.37798,15.119046 -6.61458,41.010416 -6.61458,41.010416 0,0 4.15774,-4.15774 5.29166,-6.04762 1.13393,-1.88988 5.48066,-41.010414 4.34673,-48.569939 -1.13393,-7.559524 -15.875,-10.016368 -15.875,-10.016368 z"
         style="fill:#d40000;stroke:none;stroke-width:0.62388474px;stroke-linecap:butt;stroke-linejoin:miter;stroke-opacity:1" />
    </g>
    <path
       style="opacity:1;fill:#ffe6d5;fill-opacity:1;stroke:none;stroke-width:1.28899992;stroke-linecap:round;stroke-linejoin:round;stroke-miterlimit:4;stroke-dasharray:none;stroke-opacity:1"
       d="m 132.71791,136.48357 c 2.3274,-0.45283 4.11455,-1.38185 2.93833,-5.70503 -1.0468,-3.84745 -3.1625,-4.51803 -5.48988,-4.0652 -2.32741,0.45283 -4.1439,1.13712 -2.93834,5.70505 1.30437,4.94235 3.16251,4.51802 5.48989,4.06518 z"
       id="path4485-7-5-2-1"
       inkscape:connector-curvature="0"
       sodipodi:nodetypes="sssss" />
    <path
       style="opacity:1;fill:#ffe6d5;fill-opacity:1;stroke:none;stroke-width:1.28899992;stroke-linecap:round;stroke-linejoin:round;stroke-miterlimit:4;stroke-dasharray:none;stroke-opacity:1"
       d="m 78.860496,136.25688 c -2.327389,-0.45283 -4.114551,-1.38185 -2.938329,-5.70503 1.046811,-3.84745 3.162503,-4.51803 5.489893,-4.0652 2.327389,0.45283 4.143891,1.13712 2.938329,5.70503 -1.30437,4.94236 -3.162508,4.51803 -5.489893,4.0652 z"
       id="path4485-7-5-2"
       inkscape:connector-curvature="0"
       sodipodi:nodetypes="sssss" />
    <path
       style="fill:#a05a2c;stroke:none;stroke-width:0.26458332px;stroke-linecap:butt;stroke-linejoin:miter;stroke-opacity:1"
       d="m 57.751327,179.50774 0.831058,4.98634 96.735045,6.48225 0.1662,-4.98635 z"
       id="path5245"
       inkscape:connector-curvature="0" />
    <path
       style="fill:#a05a2c;fill-opacity:1;stroke:none;stroke-width:0.26458332px;stroke-linecap:butt;stroke-linejoin:miter;stroke-opacity:1"
       d="m 58.416173,183.57991 c 1.16348,0 9.972684,32.90986 9.972684,32.90986 l 4.321497,-0.16621 -10.138896,-31.91258 z"
       id="path5247"
       inkscape:connector-curvature="0" />
    <path
       style="fill:#a05a2c;fill-opacity:1;stroke:none;stroke-width:0.26458332px;stroke-linecap:butt;stroke-linejoin:miter;stroke-opacity:1"
       d="m 150.49729,190.31148 c 1.66211,-0.16622 4.82013,-0.16622 4.82013,-0.16622 l -1.66211,28.42216 -4.3215,-0.66485 z"
       id="path5249"
       inkscape:connector-curvature="0" />
    <path
       style="fill:#955429;stroke:none;stroke-width:0.99999994px;stroke-linecap:butt;stroke-linejoin:miter;stroke-opacity:1;fill-opacity:1"
       d="M 113.37695 342.71094 L 110.97656 343.93945 L 125.04883 362.20703 L 228.49023 369.13867 C 231.99197 362.34805 238.70703 352.61133 238.70703 352.61133 L 227.43555 350.27734 L 113.37695 342.71094 z "
       transform="matrix(0.26458333,0,0,0.26458333,57.751327,90.821851)"
       id="path5245-6" />
  </g>
</svg>
